<svg width="653" height="720" viewBox="0 0 653 720" fill="none" xmlns="http://www.w3.org/2000/svg">
<path fill-rule="evenodd" clip-rule="evenodd" d="M635.989 -7.43577e-07L641.361 30.5416C647.628 59.9924 659.267 119.985 647.628 179.977C635.989 239.97 600.176 299.962 588.537 361.045C576.898 421.038 570.631 481.03 588.537 541.023C606.443 601.015 629.722 661.008 641.361 690.458L653 721L3.70952e-05 721L3.84302e-05 690.458C3.97176e-05 661.008 4.23399e-05 601.015 4.49623e-05 541.023C4.75846e-05 481.03 5.0207e-05 421.038 5.28293e-05 361.045C5.54994e-05 299.962 5.81217e-05 239.97 6.07441e-05 179.977C6.33664e-05 119.985 6.59888e-05 59.9924 6.72761e-05 30.5416L6.86111e-05 9.00334e-06L635.989 -7.43577e-07Z" fill="url(#paint0_linear_26_114)"/>
<defs>
<linearGradient id="paint0_linear_26_114" x1="-7.40785e-05" y1="721" x2="628" y2="3.8302e-05" gradientUnits="userSpaceOnUse">
<stop stop-color="#10C769"/>
<stop offset="1" stop-color="#1BF485"/>
</linearGradient>
</defs>
</svg>
