<svg width="31" height="32" viewBox="0 0 31 32" fill="none" xmlns="http://www.w3.org/2000/svg">
<path d="M10.6156 30.0373V25.145C10.6156 23.8961 11.6355 22.8837 12.8935 22.8837H17.4922C18.0963 22.8837 18.6757 23.1219 19.1028 23.546C19.53 23.9701 19.77 24.5452 19.77 25.145V30.0373C19.7662 30.5565 19.9713 31.0558 20.3398 31.4242C20.7083 31.7927 21.2097 32 21.7327 32H24.8701C26.3354 32.0037 27.742 31.4285 28.7794 30.4013C29.8169 29.374 30.4 27.9791 30.4 26.5245V12.587C30.4 11.4119 29.8753 10.2973 28.9674 9.54346L18.2944 1.08139C16.4378 -0.402301 13.7778 -0.354396 11.9766 1.19516L1.54722 9.54346C0.596384 10.2751 0.0280836 11.393 0 12.587V26.5103C0 29.5421 2.47581 32 5.52987 32H8.59565C9.68195 32 10.5648 31.1299 10.5727 30.0515L10.6156 30.0373Z" fill="#3F3F3F"/>
</svg>
